<?xml version="1.0" encoding="iso-8859-1"?>
<!-- Uploaded to: SVG Repo, www.svgrepo.com, Generator: SVG Repo Mixer Tools -->
<svg version="1.1" id="Layer_1" xmlns="http://www.w3.org/2000/svg" xmlns:xlink="http://www.w3.org/1999/xlink" 
	 viewBox="0 0 512 512" xml:space="preserve">
<path style="fill:#FF6B58;" d="M8.533,61.169C3.821,61.169,0,64.989,0,69.703v22.756l17.067,54.018V69.703
	C17.067,64.989,13.246,61.169,8.533,61.169z"/>
<polygon style="fill:#FF462E;" points="142.485,92.458 0,92.458 0,408.164 371.068,453.675 410.89,326.655 242.69,292.392 
	141.966,95.004 "/>
<path style="fill:#FF6B58;" d="M199.373,141.323V35.567c-31.414,0-56.889,25.475-56.889,56.889v48.868
	c0,69.757,31.983,129.456,92.479,172.658c35.897,25.634,80.771,45.557,139.992,62.02l35.931-49.345
	C311.945,301.955,199.373,255.886,199.373,141.323z"/>
<g>
	<path style="fill:#DEDAD2;" d="M512,408.166L441.532,442.3l-70.468-34.133c0-64.182,39.822-81.51,39.822-81.51
		C473.168,342.198,512,343.984,512,408.166z"/>
	<circle style="fill:#DEDAD2;" cx="71.248" cy="220.592" r="37.109"/>
	<path style="fill:#DEDAD2;" d="M205.062,149.86h-73.954c-4.713,0-8.533-3.82-8.533-8.533c0-4.714,3.821-8.533,8.533-8.533h73.954
		c4.713,0,8.533,3.82,8.533,8.533C213.595,146.039,209.776,149.86,205.062,149.86z"/>
	<path style="fill:#DEDAD2;" d="M141.965,218.423c-3.598,0-6.943-2.293-8.113-5.899c-1.456-4.482,0.997-9.296,5.478-10.752
		l70.177-22.801c4.481-1.458,9.296,0.996,10.752,5.478c1.456,4.482-0.997,9.296-5.478,10.752l-70.177,22.801
		C143.728,218.287,142.839,218.423,141.965,218.423z"/>
	<path style="fill:#DEDAD2;" d="M173.487,280.271c-2.639,0-5.241-1.22-6.911-3.519c-2.77-3.813-1.924-9.149,1.889-11.919
		l60.469-43.933c3.813-2.772,9.15-1.925,11.919,1.888c2.77,3.813,1.924,9.149-1.889,11.919l-60.469,43.933
		C176.981,279.741,175.227,280.271,173.487,280.271z"/>
	<path style="fill:#DEDAD2;" d="M222.557,329.355c-1.739,0-3.494-0.53-5.008-1.632c-3.813-2.77-4.658-8.107-1.888-11.919
		l44.282-60.948c2.77-3.814,8.109-4.657,11.919-1.888c3.814,2.77,4.658,8.107,1.888,11.919l-44.282,60.948
		C227.798,328.133,225.196,329.355,222.557,329.355z"/>
</g>
<polygon style="fill:#BDB5A5;" points="512,408.166 512,476.433 318.578,476.433 284.444,442.3 318.578,408.166 "/>
<polygon style="fill:#DEDAD2;" points="318.578,408.166 318.578,433.77 307.2,442.3 318.578,450.831 318.578,476.433 0,476.433 
	0,408.166 "/>
<rect y="433.766" style="fill:#261D16;" width="318.578" height="17.067"/>
</svg>